<svg width="26" height="26" viewBox="0 0 26 26" fill="none" xmlns="http://www.w3.org/2000/svg">
<path d="M21.9236 8.1718C21.817 8.23853 19.2794 9.64687 19.2794 12.7695C19.399 16.3306 22.4818 17.5795 22.5346 17.5795C22.4818 17.6462 22.0692 19.2807 20.8472 20.9941C19.8774 22.4701 18.801 23.9581 17.1665 23.9581C15.6117 23.9581 15.0535 22.9745 13.2596 22.9745C11.3329 22.9745 10.7878 23.9581 9.31275 23.9581C7.67822 23.9581 6.52208 22.3903 5.49942 20.9283C4.17082 19.0147 3.04155 16.0117 3.00168 13.1283C2.97482 11.6003 3.26775 10.0984 4.01135 8.82267C5.06088 7.04167 6.93462 5.83267 8.98082 5.7928C10.5486 5.73993 11.944 6.8692 12.9008 6.8692C13.8177 6.8692 15.5319 5.7928 17.4715 5.7928C18.3087 5.79367 20.5413 6.04587 21.9236 8.1718ZM12.7682 5.48773C12.4891 4.0924 13.2596 2.69707 13.9771 1.807C14.8941 0.7306 16.3423 0 17.5911 0C17.6709 1.39533 17.1656 2.7638 16.2626 3.76047C15.4522 4.83687 14.0569 5.6472 12.7682 5.48773Z" fill="black"/>
</svg>
