<svg width="26" height="28" viewBox="0 0 26 28" fill="none" xmlns="http://www.w3.org/2000/svg">
<path d="M13 2.91669C10.2705 2.91669 7.65275 4.08439 5.72269 6.16292C3.79263 8.24145 2.70833 11.0605 2.70833 14C2.70833 16.9395 3.79263 19.7586 5.72269 21.8371C7.65275 23.9156 10.2705 25.0834 13 25.0834C15.7295 25.0834 18.3472 23.9156 20.2773 21.8371C22.2074 19.7586 23.2917 16.9395 23.2917 14C23.2917 11.0605 22.2074 8.24145 20.2773 6.16292C18.3472 4.08439 15.7295 2.91669 13 2.91669Z" fill="#039BE5"/>
<path d="M14.3932 16.9376H17.0565L17.4747 14.0239H14.3926V12.4314C14.3926 11.221 14.7599 10.1476 15.8112 10.1476H17.5007V7.60489C17.2039 7.56172 16.5761 7.46722 15.3898 7.46722C12.9128 7.46722 11.4606 8.87597 11.4606 12.0855V14.0239H8.91421V16.9376H11.4606V24.9462C11.9649 25.0279 12.4757 25.0833 13 25.0833C13.474 25.0833 13.9365 25.0366 14.3932 24.9701V16.9376Z" fill="white"/>
</svg>
